<?xml version="1.0" encoding="UTF-8"?>
<!DOCTYPE svg PUBLIC "-//W3C//DTD SVG 1.1//EN" "http://www.w3.org/Graphics/SVG/1.1/DTD/svg11.dtd">
<!-- Creator: CorelDRAW X7 -->
<?xml-stylesheet href="logo.css" type="text/css"?>
<svg xmlns="http://www.w3.org/2000/svg" xml:space="preserve" width="414px" height="56px" version="1.1" style="shape-rendering:geometricPrecision; text-rendering:geometricPrecision; image-rendering:optimizeQuality; fill-rule:evenodd; clip-rule:evenodd"
viewBox="0 0 414 56"
 xmlns:xlink="http://www.w3.org/1999/xlink">
 <g id="Capa_x0020_1">
  <metadata id="CorelCorpID_0Corel-Layer"/>
  <g id="_313948768">
   <path class="fil0 str0" d="M158 3l0 11 0 0c0,15 17,4 21,13 1,4 -1,12 -5,15 -7,7 -19,4 -25,-2 -2,-2 -6,-7 -10,-6 -1,0 0,3 -7,4 7,-1 5,-4 7,-4 4,-1 8,3 11,5 7,8 22,9 26,-3 7,-19 -14,-6 -19,-16 -2,-3 -1,-13 -1,-17 0,0 0,-1 1,-1 0,0 1,1 1,1z"/>
  </g>
  <path class="fil1" d="M157 3l0 11c-1,19 27,-1 20,22 -3,9 -12,11 -21,8 -7,-2 -7,-6 -12,-8 -1,-1 -5,-4 -6,-1 0,0 -2,3 -6,3"/>
  <path class="fil2" d="M152 11c-8,4 -10,12 -11,19 1,0 3,1 4,3 2,3 3,0 7,3 3,2 5,3 6,1 1,-1 3,-7 3,-9 1,-2 1,-2 -1,-3 -2,-1 -4,-2 -6,-3 -2,-2 -2,-8 -2,-11z"/>
  <path class="fil2" d="M163 7c-1,2 -1,3 -1,4 -1,4 0,6 2,8 1,-4 4,-7 8,-7 2,0 5,1 6,1 4,2 6,4 7,6 2,4 3,8 2,14 -2,7 -10,19 -22,19 -9,0 -15,-4 -18,-7 -2,-1 -3,-2 -4,-4 -1,-1 5,9 11,12 21,9 44,-13 31,-34 -4,-8 -13,-13 -22,-12z"/>
  <path class="fil2" d="M5 31l0 3 5 0 0 2 -5 0 0 4 6 0 0 2 -8 0 0 -13 8 0 0 2 -6 0zm30 11l-7 -8 0 8 -2 0 0 -13 1 0 6 8 0 -8 3 0 0 13 -1 0zm18 0l-3 0 0 -13c2,0 3,0 4,0 2,0 4,0 5,1 1,1 1,3 1,5 0,5 -2,7 -7,7zm0 -11l0 9c0,0 1,0 1,0 1,0 2,0 3,-1 1,-1 1,-2 1,-4 0,-3 -1,-4 -4,-4 0,0 -1,0 -1,0zm21 4c0,-2 0,-3 1,-5 2,-1 3,-2 5,-2 2,0 3,1 4,2 1,1 2,3 2,5 0,3 -1,4 -2,6 -1,1 -2,2 -4,2 -2,0 -4,-1 -5,-2 -1,-2 -1,-3 -1,-6zm2 0c0,2 1,3 1,4 1,1 2,1 3,1 1,0 2,0 2,-1 1,-1 1,-2 1,-4 0,-3 -1,-4 -3,-4 -1,0 -2,0 -3,1 0,1 -1,2 -1,3zm32 7l-1 -2 -5 0 -1 2 -2 0 5 -14 1 0 6 14 -3 0zm-3 -9l-2 5 3 0 -1 -5zm26 9l-3 -5 -3 5 -2 0 4 -7 -4 -6 2 0 3 4 3 -4 3 0 -4 6 4 7 -3 0z"/>
  <line class="fil1 str1" x1="395" y1="50" x2="179" y2= "50" />
  <path class="fil2" d="M192 23l1 0 0 5c0,1 1,1 1,1 0,0 0,1 1,1 0,0 1,-1 1,-1 0,0 0,0 0,-1l0 -5 2 0 0 5c0,1 0,2 -1,2 -1,1 -1,1 -2,1 -1,0 -2,0 -2,-1 -1,0 -1,-1 -1,-2l0 -5zm11 8l0 -4c0,0 0,0 0,-1 0,0 -1,0 -1,0 0,0 -1,0 -1,0 0,0 0,0 0,1l0 4 -2 0 0 -6 1 0 1 1c0,-1 0,-1 1,-1 1,0 1,0 2,1 0,0 0,0 0,1l0 4 -1 0zm4 -8c0,0 0,0 0,0 1,0 1,0 1,1 0,0 0,0 -1,0 0,0 0,0 0,0 0,0 -1,0 -1,0 0,0 0,0 0,0 0,-1 0,-1 0,-1 0,0 1,0 1,0zm-1 8l0 -5 -1 0 0 -1 3 0 0 6 -2 0zm7 0l0 -1c0,0 -1,1 -1,1 0,0 0,0 -1,0 0,0 -1,0 -2,-1 0,0 0,-1 0,-2 0,-1 0,-2 1,-2 0,-1 1,-1 2,-1 0,0 0,0 1,0l0 -2 1 0 0 8 -1 0zm0 -5c-1,0 -1,0 -1,0 -1,0 -1,0 -1,1 -1,0 -1,0 -1,1 0,1 1,2 2,2 0,0 0,0 0,0 1,0 1,-1 1,-1l0 -3zm6 4c-1,0 -1,1 -1,1 0,0 -1,0 -1,0 -1,0 -1,0 -1,-1 -1,0 -1,0 -1,-1 0,-1 0,-1 1,-1 0,-1 1,-1 2,-1 0,0 0,0 0,0 0,-1 0,-1 -1,-1 0,0 -1,0 -1,0l0 -1c0,0 1,0 1,0 1,0 2,0 2,0 1,1 1,2 1,3l0 1c0,1 0,1 0,1 0,1 0,1 0,1 0,0 0,0 -1,0 0,0 0,0 0,0 0,-1 0,-1 0,-1zm-1 -2c0,0 0,0 0,0 -1,0 -2,0 -2,1 0,1 1,1 1,1 1,0 1,-1 1,-1l0 -1zm7 3l0 -1c0,0 0,1 -1,1 0,0 0,0 0,0 -1,0 -2,0 -2,-1 -1,0 -1,-1 -1,-2 0,-1 0,-2 1,-2 0,-1 1,-1 2,-1 0,0 1,0 1,0l0 -2 1 0 0 8 -1 0zm0 -5c0,0 -1,0 -1,0 -1,0 -1,0 -1,1 -1,0 -1,0 -1,1 0,1 1,2 2,2 0,0 0,0 1,0 0,0 0,-1 0,-1l0 -3zm10 5l0 -1c-1,0 -1,1 -1,1 0,0 -1,0 -1,0 -1,0 -1,0 -2,-1 0,0 0,-1 0,-2 0,-1 0,-2 0,-2 1,-1 2,-1 2,-1 1,0 1,0 2,0l0 -2 1 0 0 8 -1 0zm0 -5c-1,0 -1,0 -1,0 -1,0 -1,0 -2,1 0,0 0,0 0,1 0,1 1,2 2,2 0,0 0,0 0,0 0,0 0,-1 1,-1l0 -3zm7 2l-4 0c0,1 0,1 1,1 0,1 0,1 1,1 0,0 1,0 1,-1l1 1c-1,1 -1,1 -2,1 -1,0 -2,0 -2,-1 -1,0 -1,-1 -1,-2 0,-1 0,-2 1,-2 0,-1 1,-1 2,-1 0,0 1,0 2,1 0,0 0,1 0,2 0,0 0,0 0,0zm-4 -1l3 0c0,-1 -1,-1 -1,-1 -1,0 -2,0 -2,1zm10 -3l0 2 3 0 0 1 -3 0 0 2 4 0 0 2 -5 0 0 -8 5 0 0 1 -4 0zm9 7l0 -4c0,0 0,0 -1,-1 0,0 0,0 -1,0 0,0 0,0 0,0 0,0 -1,0 -1,1l0 4 -1 0 0 -6 1 0 0 1c1,-1 1,-1 2,-1 0,0 1,0 1,1 1,0 1,0 1,1l0 4 -1 0zm6 0l0 -1c0,0 0,1 0,1 -1,0 -1,0 -1,0 -1,0 -2,0 -2,-1 -1,0 -1,-1 -1,-2 0,-1 0,-2 1,-2 0,-1 1,-1 2,-1 0,0 1,0 1,0l0 -2 1 0 0 8 -1 0zm0 -5c0,0 -1,0 -1,0 0,0 -1,0 -1,1 0,0 0,0 0,1 0,1 0,2 1,2 0,0 1,0 1,0 0,0 0,-1 0,-1l0 -3zm2 2c0,-1 1,-2 1,-2 1,-1 1,-1 2,-1 1,0 2,0 2,1 1,0 1,1 1,2 0,1 0,1 -1,2 0,1 -1,1 -2,1 -1,0 -1,0 -2,-1 0,-1 -1,-1 -1,-2zm2 0c0,1 0,2 1,2 1,0 1,0 1,-1 0,0 0,-1 0,-1 0,-1 0,-2 -1,-2 0,0 -1,0 -1,0 0,1 0,1 0,2zm5 2l0 -1c0,1 1,1 1,1 1,0 1,0 1,-1 0,0 0,0 0,0 0,0 -1,-1 -1,-1 -1,0 -1,-1 -1,-2 0,0 0,0 0,-1 0,0 1,0 2,0 0,0 1,0 1,0l0 1c0,0 -1,0 -1,0 -1,0 -1,0 -1,1 0,0 0,0 0,0 0,0 1,0 1,0 1,1 1,1 1,1 0,0 1,1 1,1 0,1 -1,1 -1,1 0,1 -1,1 -2,1 0,0 0,0 -1,0 0,0 0,0 0,-1zm9 -5l0 1c-1,0 -1,0 -2,0 0,0 -1,0 -1,1 0,0 0,0 0,1 0,1 0,2 1,2 1,0 1,0 2,-1l0 1c0,1 -1,1 -1,1 0,0 -1,0 -1,0 -1,0 -1,0 -2,-1 -1,0 -1,-1 -1,-2 0,-1 1,-2 1,-2 1,-1 1,-1 2,-1 1,0 2,0 2,0zm1 3c0,-1 0,-2 1,-2 0,-1 1,-1 2,-1 0,0 1,0 2,1 0,0 0,1 0,2 0,1 0,1 0,2 -1,1 -2,1 -2,1 -1,0 -2,0 -2,-1 -1,-1 -1,-1 -1,-2zm1 0c0,1 1,2 2,2 0,0 0,0 1,-1 0,0 0,-1 0,-1 0,-1 -1,-2 -1,-2 -1,0 -1,0 -1,0 -1,1 -1,1 -1,2zm7 3l0 2 -2 0 0 -8 2 0 0 0c0,0 0,0 1,0 2,0 3,1 3,3 0,1 -1,2 -1,2 -1,1 -1,1 -2,1 -1,0 -1,0 -1,0zm0 -5l0 3c0,1 0,1 0,1 1,0 1,0 2,-1 0,0 0,0 0,-1 0,-1 0,-1 0,-2 0,0 -1,0 -2,0 0,0 0,0 0,0zm6 -3c0,0 0,0 0,0 0,0 1,0 1,1 0,0 -1,0 -1,0 0,0 0,0 0,0 0,0 -1,0 -1,0 0,0 0,0 0,0 0,-1 0,-1 0,-1 0,0 1,0 1,0zm-1 8l0 -5 -1 0 0 -1 2 0 0 6 -1 0zm6 -1c0,0 0,1 0,1 -1,0 -1,0 -1,0 -1,0 -2,0 -2,-1 0,0 0,0 0,-1 0,-1 0,-1 0,-1 1,-1 2,-1 2,-1 1,0 1,0 1,0 0,-1 0,-1 -1,-1 -1,0 -1,0 -2,0l0 -1c1,0 1,0 2,0 1,0 1,0 2,0 0,1 0,2 0,3l0 1c0,1 1,1 1,1 0,1 0,1 -1,1 0,0 0,0 0,0 0,0 0,0 -1,0 0,-1 0,-1 0,-1zm0 -2c0,0 0,0 0,0 -2,0 -2,0 -2,1 0,1 0,1 1,1 1,0 1,-1 1,-1l0 -1zm8 3l-2 0 0 -8c1,0 2,0 2,0 1,0 2,0 3,1 1,1 1,1 1,3 0,2 -1,4 -4,4zm0 -7l0 5c0,0 0,0 0,0 1,0 2,0 2,0 0,-1 1,-1 1,-2 0,-2 -1,-3 -3,-3 0,0 0,0 0,0zm6 -1c0,0 1,0 1,0 0,0 0,0 0,1 0,0 0,0 0,0 0,0 -1,0 -1,0 0,0 0,0 0,0 -1,0 -1,0 -1,0 0,-1 0,-1 1,-1 0,0 0,0 0,0zm-1 8l0 -5 0 0 0 -1 2 0 0 6 -2 0zm3 1l1 -1c0,1 1,1 1,1 1,0 1,0 1,0 1,0 1,-1 1,-1 0,0 -1,0 -1,0 0,0 -1,0 -1,0 0,0 0,0 -1,0 0,0 -1,-1 -1,-1 0,0 0,-1 0,-1 1,0 1,0 1,0 -1,-1 -1,-1 -1,-2 0,-1 0,-1 1,-2 0,0 1,0 1,0 1,0 1,0 2,0l0 0 1 0 -1 1c1,0 1,1 1,1 0,1 -1,1 -1,2 0,0 -1,0 -1,0 -1,0 -1,0 -1,0l0 0c0,0 0,0 0,0 0,0 -1,0 -1,0 0,1 1,1 1,1 0,0 0,0 0,0 1,0 1,0 1,0 1,0 2,0 2,1 0,1 0,1 -1,1 0,1 -1,1 -2,1 -1,0 -1,0 -2,-1zm1 -5c0,0 0,1 1,1 0,0 0,0 0,0 1,0 1,0 1,0 0,0 0,-1 0,-1 0,0 0,-1 0,-1 0,0 0,0 -1,0 0,0 0,0 0,0 -1,0 -1,1 -1,1zm10 1l-4 0c0,1 0,1 0,1 1,1 1,1 1,1 1,0 2,0 2,-1l0 1c0,1 -1,1 -2,1 -1,0 -1,0 -2,-1 0,0 -1,-1 -1,-2 0,-1 1,-2 1,-2 1,-1 2,-1 2,-1 1,0 2,0 2,1 1,0 1,1 1,2 0,0 0,0 0,0zm-4 -1l3 0c0,-1 -1,-1 -2,-1 0,0 -1,0 -1,1zm5 3l0 -1c1,1 1,1 2,1 0,0 0,0 0,-1 0,0 0,0 0,0 0,0 0,-1 -1,-1 -1,0 -1,-1 -1,-2 0,0 0,0 0,-1 1,0 1,0 2,0 0,0 1,0 1,0l0 1c0,0 -1,0 -1,0 -1,0 -1,0 -1,1 0,0 0,0 0,0 1,0 1,0 1,0 1,1 1,1 1,1 1,0 1,1 1,1 0,1 0,1 -1,1 0,1 -1,1 -1,1 -1,0 -1,0 -1,0 -1,0 -1,0 -1,-1zm5 -4l-1 0 0 -1 1 0 0 -1 1 -1 0 2 2 0 0 1 -2 0 0 3c0,0 0,0 1,0 0,1 0,1 0,1 1,0 1,0 1,-1l0 2c0,0 -1,0 -1,0 -1,0 -1,0 -2,-1 0,0 0,0 0,-1l0 -3zm5 -3c0,0 1,0 1,0 0,0 0,0 0,1 0,0 0,0 0,0 0,0 -1,0 -1,0 0,0 0,0 0,0 -1,0 -1,0 -1,0 0,-1 0,-1 1,-1 0,0 0,0 0,0zm-1 8l0 -5 0 0 0 -1 2 0 0 6 -2 0zm6 0l-1 0 -2 -6 1 0 2 4 1 -4 1 0 -2 6zm6 -1c0,0 0,1 0,1 -1,0 -1,0 -1,0 -1,0 -1,0 -2,-1 0,0 0,0 0,-1 0,-1 0,-1 1,-1 0,-1 1,-1 2,-1 0,0 0,0 0,0 0,-1 0,-1 -1,-1 -1,0 -1,0 -1,0l-1 -1c1,0 1,0 2,0 1,0 2,0 2,0 0,1 1,2 1,3l0 1c0,1 0,1 0,1 0,1 0,1 0,1 -1,0 -1,0 -1,0 0,0 0,0 0,0 -1,-1 -1,-1 -1,-1zm0 -2c0,0 0,0 0,0 -1,0 -2,0 -2,1 0,1 0,1 1,1 1,0 1,-1 1,-1l0 -1zm9 4c0,0 -1,0 -1,1 -1,0 -1,0 -2,0l0 -1c1,0 2,0 2,-1 0,0 0,-1 -1,-2l-1 -4 1 0 1 4 2 -4 1 0 -2 7zm14 -1l-2 0 0 -4 -2 4 0 0 -2 -4 -1 4 -1 0 1 -8 1 0 2 5 1 -5 1 0 2 8zm0 -3c0,-1 0,-2 1,-2 0,-1 1,-1 2,-1 1,0 1,0 2,1 0,0 1,1 1,2 0,1 -1,1 -1,2 -1,1 -1,1 -2,1 -1,0 -2,0 -2,-1 -1,-1 -1,-1 -1,-2zm2 0c0,1 0,2 1,2 0,0 1,0 1,-1 0,0 0,-1 0,-1 0,-1 0,-2 -1,-2 -1,0 -1,0 -1,0 0,1 0,1 0,2zm5 -2l-1 0 0 -1 1 0 0 -1 1 -1 0 2 2 0 0 1 -2 0 0 3c0,0 0,0 0,0 1,1 1,1 1,1 0,0 1,0 1,-1l0 2c0,0 -1,0 -1,0 -1,0 -1,0 -2,-1 0,0 0,0 0,-1l0 -3zm5 -3c0,0 0,0 1,0 0,0 0,0 0,1 0,0 0,0 0,0 -1,0 -1,0 -1,0 0,0 0,0 0,0 -1,0 -1,0 -1,0 0,-1 0,-1 1,-1 0,0 0,0 0,0zm-1 8l0 -5 0 0 0 -1 2 0 0 6 -2 0zm4 -8l1 0 0 6c0,1 0,1 0,1 0,1 0,1 -1,1 0,0 0,-1 0,-1l0 -7zm4 0c0,0 0,0 0,0 0,0 0,0 0,1 0,0 0,0 0,0 0,0 0,0 0,0 -1,0 -1,0 -1,0 0,0 0,0 0,0 0,-1 0,-1 0,-1 0,0 0,0 1,0zm-1 8l0 -5 -1 0 0 -1 2 0 0 6 -1 0zm6 0l0 -1c0,0 0,1 0,1 0,0 -1,0 -1,0 -1,0 -1,0 -2,-1 0,0 -1,-1 -1,-2 0,-1 1,-2 1,-2 1,-1 1,-1 2,-1 1,0 1,0 1,0l0 -2 2 0 0 8 -2 0zm0 -5c0,0 0,0 0,0 -1,0 -1,0 -2,1 0,0 0,0 0,1 0,1 0,2 2,2 0,0 0,0 0,0 0,0 0,-1 0,-1l0 -3zm6 4c0,0 0,1 0,1 -1,0 -1,0 -1,0 -1,0 -1,0 -2,-1 0,0 0,0 0,-1 0,-1 0,-1 0,-1 1,-1 2,-1 3,-1 0,0 0,0 0,0 0,-1 0,-1 -1,-1 -1,0 -1,0 -1,0l-1 -1c1,0 1,0 2,0 1,0 1,0 2,0 0,1 0,2 0,3l0 1c0,1 1,1 1,1 0,1 0,1 0,1 -1,0 -1,0 -1,0 0,0 0,0 0,0 -1,-1 -1,-1 -1,-1zm0 -2c0,0 0,0 0,0 -1,0 -2,0 -2,1 0,1 0,1 1,1 1,0 1,-1 1,-1l0 -1zm7 3l0 -1c-1,0 -1,1 -1,1 0,0 -1,0 -1,0 -1,0 -1,0 -2,-1 0,0 0,-1 0,-2 0,-1 0,-2 0,-2 1,-1 2,-1 2,-1 1,0 1,0 2,0l0 -2 1 0 0 8 -1 0zm0 -5c-1,0 -1,0 -1,0 -1,0 -1,0 -2,1 0,0 0,0 0,1 0,1 1,2 2,2 0,0 0,0 0,0 0,0 1,-1 1,-1l0 -3zm-212 9l-1 1c0,0 0,0 -1,0 0,0 0,0 -1,0 0,0 -1,0 -1,1 -1,0 -1,1 -1,2 0,1 0,1 1,2 0,0 1,0 1,0 1,0 1,0 2,0l0 -2 -2 0 0 -1 3 0 0 4c0,0 -1,0 -1,0 -1,1 -1,1 -2,1 -1,0 -2,-1 -3,-1 0,-1 -1,-2 -1,-3 0,-2 1,-3 2,-3 0,-1 1,-1 2,-1 1,0 2,0 3,0zm4 7c0,0 0,0 0,0 -1,1 -1,1 -1,1 -1,0 -1,-1 -2,-1 0,0 0,-1 0,-1 0,-1 0,-1 0,-2 1,0 2,0 3,0 0,0 0,0 0,0 0,-1 0,-1 -1,-1 -1,0 -1,0 -1,0l-1 -1c1,0 1,0 2,0 1,0 1,0 2,0 0,1 0,1 0,3l0 1c0,1 1,1 1,1 0,0 0,1 0,1 -1,0 -1,0 -1,0 0,0 0,0 0,-1 -1,0 -1,0 -1,0zm0 -2c0,0 0,0 0,0 -1,0 -2,0 -2,1 0,0 0,1 1,1 1,0 1,-1 1,-2l0 0zm3 2l0 -1c0,0 1,1 1,1 1,0 1,-1 1,-1 0,0 0,0 0,-1 0,0 -1,0 -1,0 -1,0 -1,-1 -1,-2 0,0 0,-1 0,-1 0,0 1,0 2,0 0,0 1,0 1,0l0 1c0,0 -1,0 -1,0 -1,0 -1,0 -1,0 0,0 0,1 0,1 0,0 1,0 1,0 1,0 1,1 1,1 0,0 1,1 1,1 0,0 -1,1 -1,1 0,0 -1,1 -2,1 0,0 0,0 -1,0 0,-1 0,-1 0,-1zm5 -4l-1 0 0 -1 1 0 0 -1 1 -1 0 2 2 0 0 1 -2 0 0 2c0,1 0,1 0,1 0,0 1,1 1,1 0,0 1,-1 1,-1l0 1c0,1 -1,1 -1,1 -1,0 -1,-1 -2,-1 0,0 0,-1 0,-1l0 -3zm7 0c0,0 0,0 -1,0 0,0 0,0 0,0 -1,1 -1,1 -1,1l0 4 -1 0 0 -6 1 0 0 0c1,0 1,0 2,0 0,0 1,0 1,0l-1 1z"/>
  <path class="fil2" d="M218 40c0,-1 0,-2 1,-2 0,-1 1,-1 2,-1 1,0 2,0 2,1 1,0 1,1 1,2 0,1 0,2 -1,2 0,1 -1,1 -2,1 -1,0 -2,0 -2,-1 -1,0 -1,-1 -1,-2zm2 0c0,1 0,2 1,2 0,0 1,0 1,-1 0,0 0,-1 0,-1 0,-1 0,-2 -1,-2 0,0 -1,0 -1,0 0,1 0,1 0,2zm6 -6c0,0 1,1 1,1 0,0 0,0 0,0 0,0 0,1 0,1 0,0 -1,0 -1,0 0,0 0,0 0,0 -1,0 -1,-1 -1,-1 0,0 0,0 1,0 0,0 0,-1 0,-1zm-1 9l0 -5 0 0 0 -1 2 0 0 6 -2 0zm7 0l0 -4c0,0 0,-1 0,-1 0,0 0,0 -1,0 0,0 0,0 -1,0 0,0 0,0 0,0l0 5 -1 0 0 -6 1 0 0 0c0,0 1,0 2,0 0,0 1,0 1,0 1,1 1,1 1,2l0 4 -2 0zm4 -5l-1 0 0 -1 1 0 0 -1 1 -1 0 2 2 0 0 1 -2 0 0 3c0,0 0,0 0,1 0,0 1,0 1,0 0,0 1,0 1,0l0 1c0,0 -1,0 -2,0 0,0 -1,0 -1,-1 0,0 0,0 0,-1l0 -3zm9 2l-4 0c0,1 0,1 1,1 0,1 0,1 1,1 0,0 1,0 1,-1l1 1c-1,1 -1,1 -2,1 -1,0 -2,0 -3,-1 0,0 0,-1 0,-2 0,-1 0,-2 0,-2 1,-1 2,-1 3,-1 0,0 1,0 2,0 0,1 1,2 1,2 0,1 -1,1 -1,1zm-4 -1l3 0c0,-1 0,-1 -1,-1 -1,0 -2,0 -2,1zm5 3l1 -1c0,1 1,1 1,1 1,0 1,0 1,-1 0,0 0,0 0,0 0,0 -1,-1 -1,-1 -1,0 -2,-1 -2,-2 0,0 0,-1 1,-1 0,0 1,0 1,0 1,0 2,0 2,0l0 1c-1,0 -1,0 -2,0 0,0 0,0 0,0 0,1 0,1 0,1 0,0 0,0 1,0 1,1 1,1 1,1 0,0 1,1 1,1 0,1 -1,1 -1,2 -1,0 -1,0 -2,0 0,0 -1,0 -1,0 0,0 0,0 -1,-1zm6 -4l-1 0 0 -1 1 0 0 -1 1 -1 0 2 2 0 0 1 -2 0 0 3c0,0 0,0 0,1 1,0 1,0 1,0 1,0 1,0 1,0l0 1c0,0 -1,0 -1,0 -1,0 -1,0 -2,-1 0,0 0,0 0,-1l0 -3zm5 -4c1,0 1,1 1,1 0,0 0,0 0,0 0,0 0,1 0,1 0,0 0,0 -1,0 0,0 0,0 0,0 0,0 0,-1 0,-1 0,0 0,0 0,0 0,0 0,-1 0,-1zm0 9l0 -5 -1 0 0 -1 2 0 0 6 -1 0zm7 0l0 -4c0,0 0,-1 -1,-1 0,0 0,0 -1,0 0,0 0,0 0,0 -1,0 -1,0 -1,0l0 5 -1 0 0 -6 1 0 0 0c0,0 1,0 2,0 0,0 1,0 1,0 1,1 1,1 1,2l0 4 -1 0zm6 -1c0,0 0,1 -1,1 0,0 0,0 -1,0 0,0 -1,0 -1,0 -1,-1 -1,-1 -1,-2 0,-1 0,-1 1,-2 1,0 1,0 2,0 0,0 1,0 1,0 0,-1 -1,-1 -2,-1 0,0 -1,0 -1,0l0 -1c0,0 1,0 2,0 0,0 1,0 2,0 0,1 0,2 0,3l0 1c0,1 0,1 1,2 0,0 -1,0 -1,0 0,0 0,0 0,0 0,0 -1,0 -1,0 0,0 0,-1 0,-1zm0 -2c0,0 -1,0 -1,0 -1,0 -1,0 -1,1 0,1 0,1 1,1 0,0 1,-1 1,-1l0 -1zm3 -5l1 -1 0 7c0,1 1,1 1,1 0,1 0,1 -1,1 -1,0 -1,0 -1,-1l0 -7zm11 8l0 0c-1,0 -1,0 -1,0 0,0 -1,0 -1,0 -1,0 -1,0 -2,-1 0,0 -1,-1 -1,-2 0,-1 1,-2 1,-2 1,-1 2,-1 2,-1 1,0 1,0 2,0l0 -2 1 -1 0 9 -1 0zm0 -5c-1,0 -1,0 -1,0 -1,0 -1,0 -2,0 0,1 0,1 0,2 0,1 0,2 2,2 0,0 0,0 0,0 0,0 1,0 1,-1l0 -3zm8 2l-4 0c0,1 0,1 0,1 0,1 1,1 1,1 1,0 1,0 2,-1l0 1c0,1 -1,1 -2,1 -1,0 -2,0 -2,-1 -1,0 -1,-1 -1,-2 0,-1 0,-2 1,-2 1,-1 1,-1 2,-1 1,0 2,0 2,0 1,1 1,2 1,2 0,1 0,1 0,1zm-4 -1l3 0c-1,-1 -1,-1 -2,-1 -1,0 -1,0 -1,1zm8 0c0,-2 1,-3 1,-3 1,-1 2,-2 3,-2 1,0 2,1 3,2 0,0 1,1 1,3 0,1 -1,2 -1,3 -1,1 -2,1 -3,1 -1,0 -2,0 -3,-1 0,-1 -1,-2 -1,-3zm2 0c0,1 0,1 0,2 1,0 1,1 2,1 0,0 1,-1 1,-1 1,-1 1,-1 1,-2 0,-2 -1,-3 -2,-3 -1,0 -1,0 -2,1 0,0 0,1 0,2zm10 3c0,0 0,1 -1,1 0,0 0,0 -1,0 0,0 -1,0 -1,0 0,-1 -1,-1 -1,-2 0,-1 1,-1 1,-2 1,0 1,0 2,0 1,0 1,0 1,0 0,-1 0,-1 -1,-1 -1,0 -1,0 -2,0l0 -1c0,0 1,0 2,0 1,0 1,0 2,0 0,1 0,2 0,3l0 1c0,1 1,1 1,2 0,0 0,0 0,0 -1,0 -1,0 -1,0 0,0 0,0 -1,0 0,0 0,-1 0,-1zm0 -2c0,0 0,0 -1,0 -1,0 -1,0 -1,1 0,1 0,1 1,1 1,0 1,-1 1,-1l0 -1zm7 3l-2 -2 -1 2 -2 0 3 -3 -3 -3 2 0 1 2 2 -2 1 0 -2 3 3 3 -2 0zm6 -1c0,0 -1,1 -1,1 0,0 -1,0 -1,0 -1,0 -1,0 -1,0 -1,-1 -1,-1 -1,-2 0,-1 0,-1 1,-2 0,0 1,0 2,0 0,0 0,0 1,0 0,-1 -1,-1 -2,-1 0,0 -1,0 -1,0l0 -1c0,0 1,0 1,0 1,0 2,0 2,0 1,1 1,2 1,3l0 1c0,1 0,1 1,2 -1,0 -1,0 -1,0 0,0 0,0 0,0 -1,0 -1,0 -1,0 0,0 0,-1 0,-1zm0 -2c-1,0 -1,0 -1,0 -1,0 -2,0 -2,1 0,1 1,1 1,1 1,0 2,-1 2,-1l0 -1zm7 -3l0 1c-1,0 -1,0 -2,0 0,0 -1,0 -1,0 0,1 0,1 0,2 0,1 0,2 1,2 1,0 1,0 2,-1l0 1c0,1 0,1 -1,1 0,0 0,0 -1,0 -1,0 -1,0 -2,-1 -1,0 -1,-1 -1,-2 0,-1 0,-2 1,-2 1,-1 1,-1 2,-1 1,0 2,0 2,0zm5 5c0,0 0,1 -1,1 0,0 0,0 -1,0 0,0 -1,0 -1,0 -1,-1 -1,-1 -1,-2 0,-1 0,-1 1,-2 0,0 1,0 2,0 0,0 1,0 1,0 0,-1 -1,-1 -2,-1 0,0 -1,0 -1,0l0 -1c0,0 1,0 1,0 1,0 2,0 3,0 0,1 0,2 0,3l0 1c0,1 0,1 1,2 0,0 -1,0 -1,0 0,0 0,0 0,0 0,0 -1,0 -1,0 0,0 0,-1 0,-1zm0 -2c0,0 -1,0 -1,0 -1,0 -1,0 -1,1 0,1 0,1 0,1 1,0 2,-1 2,-1l0 -1z"/>
 </g>
</svg>
